<?xml version="1.0" encoding="utf-8"?>
<!-- Generator: Adobe Illustrator 27.5.0, SVG Export Plug-In . SVG Version: 6.00 Build 0)  -->
<svg version="1.1" xmlns="http://www.w3.org/2000/svg" xmlns:xlink="http://www.w3.org/1999/xlink" x="0px" y="0px"
	 viewBox="0 0 2200 1466" style="enable-background:new 0 0 2200 1466;" xml:space="preserve">
<g id="background">
	<rect y="0" style="fill:#FFFFFF;" width="2200" height="1466"/>
</g>
<g id="Objects">
	<g>
		<path style="fill:#C4A172;" d="M1205.106,398.447c-1.296-4.751-2.736-9.467-4.301-14.137c-7.442,1.575-14.677,3.555-21.606,5.894
			c-2.601,0.882-5.192,1.818-7.757,2.808c1.521,4.463,2.907,8.963,4.148,13.498c22.785,83.411-0.585,166.273-24.198,221.094
			c-20.949,48.621-49.818,94.173-79.226,134.372c-15.289,20.886-30.713,40.324-45.255,58.007c-3.15,3.834-6.263,7.586-9.323,11.249
			c-7.964,9.539-16.198,19.222-24.153,28.581c-31.064,36.545-63.199,74.34-89.215,115.078
			c-19.357,30.308-33.719,60.131-42.88,88.999c-20.319-22.461-45.759-43.627-75.96-63.163
			c-40.585-26.268-85.508-47.307-128.945-67.663c-11.123-5.21-22.623-10.592-33.836-15.964
			c-62.389-29.921-142.219-71.703-206.264-129.71c-44.239-40.072-99.897-105.746-113.8-191.092
			c-5.921-36.356-3.015-74.34,8.414-109.832c11.933-37.102,33.044-70.623,61.04-96.936c28.832-27.096,67.447-47.379,108.725-57.116
			c17.926-4.229,35.924-6.335,53.391-6.335c23.604,0,46.245,3.842,66.421,11.456c55.091,20.796,90.151,66.187,109.859,100.599
			l24.063,42.034l4.445-48.225c3.636-39.496,16.684-95.343,58.178-137.134c26.439-26.628,64.396-45.948,106.871-54.398
			c41.602-8.279,85.148-5.849,122.628,6.83c36.391,12.31,69.516,34.043,95.775,62.839c6.74,7.397,12.994,15.199,18.736,23.361
			c5.516-2.286,11.114-4.391,16.774-6.308c4.337-1.467,8.72-2.826,13.156-4.059c-7.757-11.852-16.477-23.1-26.061-33.611
			c-29.741-32.612-67.285-57.233-108.572-71.208c-42.484-14.371-91.636-17.161-138.412-7.847
			c-49.08,9.764-91.474,31.496-122.61,62.839c-29.687,29.912-50.331,69.462-60.707,115.87
			c-28.698-37.912-63.892-65.323-103.325-80.207c-41.332-15.595-88.927-17.764-137.629-6.272
			c-46.416,10.943-89.98,33.89-122.664,64.603c-31.757,29.849-55.694,67.834-69.211,109.85
			c-12.895,40.09-16.18,83.006-9.476,124.122c12.121,74.475,54.812,146.691,123.447,208.855
			c66.97,60.653,149.319,103.802,213.58,134.615c11.33,5.435,22.893,10.853,34.079,16.09c42.511,19.915,86.47,40.513,125.31,65.647
			c37.66,24.36,67.06,51.159,87.361,79.631l20.698,29.03l6.776-35.006c6.641-34.331,22.263-70.902,46.416-108.716
			c24.891-38.983,56.333-75.96,86.74-111.73c8-9.404,16.27-19.141,24.324-28.787c0.675-0.81,1.35-1.62,2.025-2.43
			c14.155-17.008,29.336-35.771,44.599-56.027c8.801-11.69,17.638-23.874,26.313-36.509c24.423-35.573,47.613-74.682,65.485-116.167
			C1216.13,554.658,1224.984,471.23,1205.106,398.447z"/>
		<path style="fill:#C4A172;" d="M1918.179,603.018c-13.516-42.025-37.453-80.009-69.21-109.859
			c-32.684-30.713-76.239-53.66-122.664-64.603c-48.702-11.492-96.297-9.323-137.629,6.272
			c-39.433,14.884-74.628,42.295-103.325,80.207c-10.376-46.407-31.019-85.958-60.715-115.87
			c-31.127-31.343-73.521-53.075-122.601-62.839c-42.151-8.396-86.227-6.956-125.616,3.924
			c-10.105,2.791-20.229,6.346-29.894,10.412c-34.538,14.533-65.89,36.671-91.474,64.72
			c-28.374,31.118-49.179,68.806-60.158,108.986c-6.92,25.323-10.358,51.933-10.358,79.451c0,51.582,12.077,106.349,35.969,161.809
			c3.123,7.244,6.398,14.407,9.818,21.498c7.46-9.404,14.443-18.466,21.048-27.312c-0.936-2.088-1.854-4.185-2.763-6.29
			c-23.613-54.821-46.983-137.683-24.198-221.094c9.71-35.537,28.122-68.878,53.246-96.432
			c20.257-22.218,44.599-40.225,71.379-52.949c4.679-2.223,9.431-4.283,14.254-6.182c15.967-6.286,32.669-10.597,49.656-12.994
			c27.006-3.816,55.487-3.042,83.114,2.457c42.475,8.45,80.432,27.771,106.871,54.398c41.494,41.791,54.542,97.638,58.178,137.134
			l4.445,48.225l24.063-42.034c19.708-34.412,54.767-79.802,109.859-100.599c35.114-13.246,77.661-15.064,119.811-5.12
			c41.278,9.737,79.892,30.02,108.725,57.116c27.996,26.313,49.107,59.834,61.04,96.936c11.428,35.492,14.335,73.476,8.414,109.832
			c-13.903,85.346-69.561,151.029-113.8,191.092c-64.045,58.007-143.874,99.789-206.264,129.71
			c-11.213,5.372-22.713,10.763-33.836,15.973c-43.438,20.347-88.36,41.386-128.945,67.654c-30.2,19.537-55.64,40.702-75.96,63.163
			c-9.161-28.868-23.514-58.691-42.88-88.999c-26.016-40.738-58.142-78.524-89.215-115.078
			c-7.955-9.359-16.189-19.033-24.153-28.581c-30.587-36.653-66.385-81.881-96.882-132.473c-6.389,8.117-13.12,16.468-20.373,25.296
			c30.137,48.405,64.306,91.492,93.768,126.785c8.054,9.647,16.324,19.384,24.324,28.796c30.407,35.762,61.849,72.738,86.74,111.73
			c24.153,37.804,39.775,74.376,46.416,108.707l6.776,35.006l20.698-29.031c20.302-28.472,49.701-55.262,87.361-79.631
			c38.839-25.134,82.799-45.723,125.31-65.647c11.186-5.237,22.749-10.655,34.079-16.09c64.261-30.812,146.61-73.962,213.58-134.615
			c68.635-62.164,111.325-134.38,123.456-208.855C1934.359,686.024,1931.074,643.1,1918.179,603.018z"/>
	</g>
</g>
</svg>
